<svg xmlns="http://www.w3.org/2000/svg" viewBox="0 0 800 1000" width="800" height="1000">
  <defs>
    <linearGradient id="bg" x1="0" y1="0" x2="0" y2="1">
      <stop offset="0%" stop-color="#f2edda"/>
      <stop offset="100%" stop-color="#e3dabc"/>
    </linearGradient>
    <radialGradient id="halo" cx="50%" cy="42%" r="55%">
      <stop offset="0%" stop-color="#fdfaf5" stop-opacity="0.85"/>
      <stop offset="100%" stop-color="#fdfaf5" stop-opacity="0"/>
    </radialGradient>
  </defs>
  <rect width="800" height="1000" fill="url(#bg)"/>
  <circle cx="400" cy="460" r="330" fill="url(#halo)"/>
  <g transform="translate(70 130) scale(1.1)" fill="#c0b28a" opacity="0.55">
    <path d="M0 0 C 20 -34 52 -44 84 -40 C 68 -8 36 6 0 0 Z"/>
    <path d="M6 10 C 34 18 52 42 56 72 C 24 62 4 40 6 10 Z" opacity="0.8"/>
  </g>
  <g transform="translate(600 800) scale(1.3)" fill="#c0b28a" opacity="0.55">
    <path d="M0 0 C 20 -34 52 -44 84 -40 C 68 -8 36 6 0 0 Z"/>
    <path d="M6 10 C 34 18 52 42 56 72 C 24 62 4 40 6 10 Z" opacity="0.8"/>
  </g>
  <g transform="translate(150 870) scale(1.4) rotate(-14)" fill="none" stroke="#585c42" stroke-width="3.5" stroke-linecap="round">
    <path d="M0 0 Q 14 -60 8 -130"/>
    <path d="M6 -30 Q 40 -46 58 -38" /><path d="M6 -30 Q 34 -22 52 -6" stroke-width="0"/>
    <path d="M9 -62 Q 42 -80 62 -74"/>
    <path d="M10 -92 Q 40 -112 58 -108"/>
    <path d="M5 -34 Q -26 -50 -44 -42"/>
    <path d="M8 -66 Q -22 -84 -40 -80"/>
    <path d="M9 -96 Q -18 -114 -34 -112"/>
    <ellipse cx="8" cy="-135" rx="7" ry="12" fill="#585c42" stroke="none" transform="rotate(8 8 -135)"/>
  </g>
  <g transform="translate(660 320) scale(1.2) rotate(152)" fill="none" stroke="#8c916c" stroke-width="3.5" stroke-linecap="round">
    <path d="M0 0 Q 14 -60 8 -130"/>
    <path d="M6 -30 Q 40 -46 58 -38" /><path d="M6 -30 Q 34 -22 52 -6" stroke-width="0"/>
    <path d="M9 -62 Q 42 -80 62 -74"/>
    <path d="M10 -92 Q 40 -112 58 -108"/>
    <path d="M5 -34 Q -26 -50 -44 -42"/>
    <path d="M8 -66 Q -22 -84 -40 -80"/>
    <path d="M9 -96 Q -18 -114 -34 -112"/>
    <ellipse cx="8" cy="-135" rx="7" ry="12" fill="#8c916c" stroke="none" transform="rotate(8 8 -135)"/>
  </g>
  
    <ellipse cx="400" cy="700" rx="128" ry="16" fill="#5f4732" opacity="0.12"/>
    <path d="M282 540 Q 282 500 322 500 L 478 500 Q 518 500 518 540 L 518 660 Q 518 700 478 700 L 322 700 Q 282 700 282 660 Z" fill="#f7f1e8"/>
    <path d="M282 540 Q 282 500 322 500 L 360 500 L 360 700 L 322 700 Q 282 700 282 660 Z" fill="#e8dcc9" opacity="0.6"/>
    <rect x="272" y="452" width="256" height="56" rx="24" fill="#c7af94"/>
    <rect x="272" y="452" width="256" height="24" rx="12" fill="#95714f" opacity="0.35"/>
    <rect x="316" y="548" width="168" height="104" rx="8" fill="#f2edda"/>
    <rect x="316" y="548" width="168" height="104" rx="8" fill="none" stroke="#c0b28a" stroke-width="1.5" opacity="0.6"/>
    <circle cx="400" cy="586" r="15" fill="none" stroke="#c0b28a" stroke-width="2" opacity="0.75"/>
    <rect x="356" y="616" width="88" height="5" rx="2.5" fill="#c0b28a" opacity="0.55"/>
    <rect x="370" y="630" width="60" height="4" rx="2" fill="#c0b28a" opacity="0.35"/>
  
  <rect width="800" height="1000" fill="#5f4732" opacity="0.02"/>
</svg>