<svg xmlns="http://www.w3.org/2000/svg" viewBox="0 0 800 1000" width="800" height="1000">
  <defs>
    <linearGradient id="bg" x1="0" y1="0" x2="0" y2="1">
      <stop offset="0%" stop-color="#ded6e4"/>
      <stop offset="100%" stop-color="#c3b5cc"/>
    </linearGradient>
    <radialGradient id="halo" cx="50%" cy="42%" r="55%">
      <stop offset="0%" stop-color="#fdfaf5" stop-opacity="0.85"/>
      <stop offset="100%" stop-color="#fdfaf5" stop-opacity="0"/>
    </radialGradient>
  </defs>
  <rect width="800" height="1000" fill="url(#bg)"/>
  <circle cx="400" cy="460" r="330" fill="url(#halo)"/>
  <g transform="translate(70 130) scale(1.1)" fill="#9d8bab" opacity="0.55">
    <path d="M0 0 C 20 -34 52 -44 84 -40 C 68 -8 36 6 0 0 Z"/>
    <path d="M6 10 C 34 18 52 42 56 72 C 24 62 4 40 6 10 Z" opacity="0.8"/>
  </g>
  <g transform="translate(600 800) scale(1.3)" fill="#9d8bab" opacity="0.55">
    <path d="M0 0 C 20 -34 52 -44 84 -40 C 68 -8 36 6 0 0 Z"/>
    <path d="M6 10 C 34 18 52 42 56 72 C 24 62 4 40 6 10 Z" opacity="0.8"/>
  </g>
  <g transform="translate(150 870) scale(1.4) rotate(-14)" fill="none" stroke="#585c42" stroke-width="3.5" stroke-linecap="round">
    <path d="M0 0 Q 14 -60 8 -130"/>
    <path d="M6 -30 Q 40 -46 58 -38" /><path d="M6 -30 Q 34 -22 52 -6" stroke-width="0"/>
    <path d="M9 -62 Q 42 -80 62 -74"/>
    <path d="M10 -92 Q 40 -112 58 -108"/>
    <path d="M5 -34 Q -26 -50 -44 -42"/>
    <path d="M8 -66 Q -22 -84 -40 -80"/>
    <path d="M9 -96 Q -18 -114 -34 -112"/>
    <ellipse cx="8" cy="-135" rx="7" ry="12" fill="#585c42" stroke="none" transform="rotate(8 8 -135)"/>
  </g>
  <g transform="translate(660 320) scale(1.2) rotate(152)" fill="none" stroke="#8c916c" stroke-width="3.5" stroke-linecap="round">
    <path d="M0 0 Q 14 -60 8 -130"/>
    <path d="M6 -30 Q 40 -46 58 -38" /><path d="M6 -30 Q 34 -22 52 -6" stroke-width="0"/>
    <path d="M9 -62 Q 42 -80 62 -74"/>
    <path d="M10 -92 Q 40 -112 58 -108"/>
    <path d="M5 -34 Q -26 -50 -44 -42"/>
    <path d="M8 -66 Q -22 -84 -40 -80"/>
    <path d="M9 -96 Q -18 -114 -34 -112"/>
    <ellipse cx="8" cy="-135" rx="7" ry="12" fill="#8c916c" stroke="none" transform="rotate(8 8 -135)"/>
  </g>
  
    <ellipse cx="400" cy="712" rx="120" ry="14" fill="#5f4732" opacity="0.12"/>
    <path d="M306 420 L 494 420 L 486 690 Q 484 712 460 712 L 340 712 Q 316 712 314 690 Z" fill="#f7f1e8" opacity="0.9"/>
    <path d="M306 420 L 360 420 L 356 712 L 340 712 Q 316 712 314 690 Z" fill="#e8dcc9" opacity="0.55"/>
    <path d="M312 540 L 488 540 L 486 690 Q 484 712 460 712 L 340 712 Q 316 712 314 690 Z" fill="#c3b5cc" opacity="0.85"/>
    <circle cx="360" cy="600" r="5" fill="#fff" opacity="0.5"/><circle cx="402" cy="640" r="4" fill="#fff" opacity="0.45"/>
    <circle cx="440" cy="590" r="4.5" fill="#fff" opacity="0.5"/><circle cx="378" cy="672" r="4" fill="#fff" opacity="0.4"/>
    <circle cx="430" cy="668" r="5" fill="#fff" opacity="0.45"/>
    <path d="M298 380 Q 400 356 502 380 L 496 424 L 304 424 Z" fill="#95714f"/>
    <path d="M298 380 Q 400 356 502 380 L 500 396 Q 400 372 300 396 Z" fill="#5f4732" opacity="0.45"/>
    <rect x="336" y="452" width="128" height="52" rx="6" fill="#f7f1e8"/>
    <rect x="352" y="468" width="96" height="5" rx="2.5" fill="#9d8bab" opacity="0.6"/>
    <rect x="364" y="482" width="72" height="4" rx="2" fill="#9d8bab" opacity="0.4"/>
  
  <rect width="800" height="1000" fill="#5f4732" opacity="0.02"/>
</svg>