<svg xmlns="http://www.w3.org/2000/svg" viewBox="0 0 800 1000" width="800" height="1000">
  <defs>
    <linearGradient id="bg" x1="0" y1="0" x2="0.4" y2="1">
      <stop offset="0%" stop-color="#f4ede3"/>
      <stop offset="100%" stop-color="#eaded0"/>
    </linearGradient>
    <radialGradient id="halo" cx="50%" cy="45%" r="52%">
      <stop offset="0%" stop-color="#fffdf9" stop-opacity="0.9"/>
      <stop offset="100%" stop-color="#fffdf9" stop-opacity="0"/>
    </radialGradient>
  </defs>
  <rect width="800" height="1000" fill="url(#bg)"/>
  <circle cx="400" cy="450" r="330" fill="url(#halo)"/>
  
  <g transform="translate(120 880) scale(1.5) rotate(-12)" fill="none"
     stroke="#8c916c" stroke-width="3" stroke-linecap="round" opacity="0.32">
    <path d="M0 0 Q 12 -55 7 -120"/>
    <path d="M5 -28 Q 36 -42 52 -35"/><path d="M8 -58 Q 38 -74 56 -68"/>
    <path d="M9 -86 Q 36 -104 52 -100"/>
    <path d="M4 -32 Q -24 -46 -40 -38"/><path d="M7 -62 Q -20 -78 -36 -74"/>
    <path d="M8 -90 Q -16 -106 -30 -104"/>
    <ellipse cx="7" cy="-124" rx="6" ry="11" fill="#8c916c" stroke="none"/>
  </g>
  
  <g transform="translate(690 300) scale(1.25) rotate(155)" fill="none"
     stroke="#8c916c" stroke-width="3" stroke-linecap="round" opacity="0.26">
    <path d="M0 0 Q 12 -55 7 -120"/>
    <path d="M5 -28 Q 36 -42 52 -35"/><path d="M8 -58 Q 38 -74 56 -68"/>
    <path d="M9 -86 Q 36 -104 52 -100"/>
    <path d="M4 -32 Q -24 -46 -40 -38"/><path d="M7 -62 Q -20 -78 -36 -74"/>
    <path d="M8 -90 Q -16 -106 -30 -104"/>
    <ellipse cx="7" cy="-124" rx="6" ry="11" fill="#8c916c" stroke="none"/>
  </g>
  
  <g transform="translate(660 940) scale(1.1) rotate(168)" fill="none"
     stroke="#c7af94" stroke-width="3" stroke-linecap="round" opacity="0.5">
    <path d="M0 0 Q 12 -55 7 -120"/>
    <path d="M5 -28 Q 36 -42 52 -35"/><path d="M8 -58 Q 38 -74 56 -68"/>
    <path d="M9 -86 Q 36 -104 52 -100"/>
    <path d="M4 -32 Q -24 -46 -40 -38"/><path d="M7 -62 Q -20 -78 -36 -74"/>
    <path d="M8 -90 Q -16 -106 -30 -104"/>
    <ellipse cx="7" cy="-124" rx="6" ry="11" fill="#c7af94" stroke="none"/>
  </g>
  <rect x="70" y="70" width="660" height="860" rx="26" fill="none" stroke="#c7af94" stroke-width="2"/>
  <text x="400" y="300" text-anchor="middle" fill="#8c916c"
    font-family="Helvetica, Arial, sans-serif" font-size="22" letter-spacing="6"
    font-weight="600">BODY SCRUB</text>
  <line x1="330" y1="330" x2="470" y2="330" stroke="#c7af94" stroke-width="2"/>
  <text x="400" y="436" text-anchor="middle" fill="#5f4732"
           font-family="Georgia, 'Times New Roman', serif" font-size="54">Dark Rose Body</text>
  <text x="400" y="504" text-anchor="middle" fill="#5f4732"
           font-family="Georgia, 'Times New Roman', serif" font-size="54">Scrub</text>
  <text x="400" y="690" text-anchor="middle" fill="#95714f"
    font-family="Georgia, serif" font-style="italic" font-size="26"
    opacity="0.85">Ethereal Artisan</text>
  <text x="400" y="880" text-anchor="middle" fill="#95714f"
    font-family="Helvetica, Arial, sans-serif" font-size="17" letter-spacing="2.5"
    opacity="0.6">PHOTOGRAPHY COMING SOON</text>
</svg>